<svg xmlns="http://www.w3.org/2000/svg" viewBox="0 0 512 512" role="img" aria-labelledby="t">
  <title id="t">Trinsic</title>
  <rect width="512" height="512" rx="112" fill="#201d18"/>
  <g transform="translate(106,56) scale(2.5)" stroke-linecap="round" stroke-linejoin="round">
    <circle cx="60" cy="11" r="2.6" fill="#cf8a4e"/>
    <g fill="none" stroke="#cf8a4e" stroke-width="2">
      <path d="M22,132 L22,62 Q22,40 40,28 Q60,13 80,28 Q98,40 98,62 L98,132"/>
      <path d="M31,132 L31,65 Q31,47 45,37 Q60,27 75,37 Q89,47 89,65 L89,132"/>
      <path d="M18,137 L102,137"/>
    </g>
    <path d="M73,37 L74.6,42.4 L80,44 L74.6,45.6 L73,51 L71.4,45.6 L66,44 L71.4,42.4 Z" fill="#cf8a4e"/>
    <path d="M50.5,40 a4.4,4.4 0 1 0 1.2,8.6 a3.3,3.3 0 1 1 -1.2,-8.6 Z" fill="#cf8a4e"/>
    <g fill="#cf8a4e">
      <circle cx="42" cy="55" r="0.9"/><circle cx="82" cy="62" r="0.9"/>
      <circle cx="38" cy="74" r="0.8"/><circle cx="86" cy="50" r="0.8"/>
    </g>
    <g fill="#cf8a4e">
      <rect x="48.5" y="58" width="5.2" height="26" rx="2.6"/>
      <rect x="55.4" y="52" width="5.2" height="32" rx="2.6"/>
      <rect x="62.3" y="52" width="5.2" height="32" rx="2.6"/>
      <rect x="69.2" y="58" width="5.2" height="26" rx="2.6"/>
      <rect x="45" y="82" width="33" height="20" rx="9"/>
      <path d="M48,86 L40,80 a3,3 0 0 1 3.4,-4.9 L50,80 Z"/>
    </g>
    <circle cx="61.5" cy="92" r="7.4" fill="#201d18"/>
    <g stroke="#cf8a4e" stroke-width="1.1">
      <path d="M70.5,92 L72.8,92 M68.2,86.3 L69.9,84.6 M61.5,84 L61.5,81.6 M54.8,86.3 L53.1,84.6 M52.5,92 L50.2,92 M54.8,97.7 L53.1,99.4 M61.5,100 L61.5,102.4 M68.2,97.7 L69.9,99.4"/>
    </g>
    <text x="61.5" y="95.4" text-anchor="middle" font-size="9.5" fill="#cf8a4e" font-family="Georgia, serif">ॐ</text>
  </g>
</svg>
